# xmcd
#
# Track frame offsets:
#	150
#	13234
#	28894
#	42284
#	56345
#	75750
#	92332
#	105929
#	119114
#	131399
#	148863
#	171304
#	188622
#	203404
#	218855
#	232415
#	252500
#	266892
#	286377
#	299663
#	312797
#
# Disc length: 4343 seconds
#
# Revision: 0
# Processed by: cddbd v1.5.2PL0 Copyright (c) Steve Scherf et al.
# Submitted via: dBpowerAMP V4.0
#
DISCID=3810f515
DTITLE=Chereè - Mamma
DYEAR=2005
DGENRE=Country
TTITLE0=Jy Het My Hart Gesteel
TTITLE1=Walvisbaai
TTITLE2=Soen My
TTITLE3=Mamma (Familiebybel)
TTITLE4=Angel Of the Morning
TTITLE5=30 Dae In die Somer
TTITLE6=You Drive Me Crazy
TTITLE7=Do You Like What You See
TTITLE8=Walk In the Room
TTITLE9=Prins Van Die Geweste
TTITLE10=Can't Be With You
TTITLE11=Manolito
TTITLE12=All Out Of Love
TTITLE13=MansMense
TTITLE14=Follow Your Heart
TTITLE15=Celine Medley
TTITLE16=Somer In Langebaan
TTITLE17=Everything About You
TTITLE18=Die Kaap En Die Reën
TTITLE19=Die Lewe's Soos 'N Liedjie
TTITLE20=Silversee
EXTD=
EXTT0=
EXTT1=
EXTT2=
EXTT3=
EXTT4=
EXTT5=
EXTT6=
EXTT7=
EXTT8=
EXTT9=
EXTT10=
EXTT11=
EXTT12=
EXTT13=
EXTT14=
EXTT15=
EXTT16=
EXTT17=
EXTT18=
EXTT19=
EXTT20=
PLAYORDER=
